<svg fill="none" height="223" viewBox="0 0 617 223" width="617" xmlns="http://www.w3.org/2000/svg"><path d="m215.428 133.397c-1.298-3.932-4.699-6.67-9.097-7.328-2.074-.309-4.449-.177-7.259.402-4.899 1.011-8.533 1.396-11.186 1.47 10.012-16.903 18.153-36.178 22.839-54.3224 7.578-29.3392 3.529-42.705-1.204-48.7506-12.523-16.00209-30.794-24.598565-52.837-24.86160105-11.759-.14378195-22.081 2.17787105-27.466 3.84744105-5.014-.88469-10.405-1.37862-16.062-1.46996-10.603-.16916-19.9719 2.14235-27.9772 6.89308-4.4319-1.49872-11.5449-3.61147-19.759-4.95964-19.3193-3.17166-34.89-.7003-46.2792 7.34558-13.79128 9.7416-20.1845 26.6673-19.002105 50.3068.375525 7.5054 4.573955 30.3414 11.184505 51.9983 3.7993 12.448 7.8505 22.785 12.0414 30.727 5.9432 11.262 12.3026 17.893 19.4418 20.275 4.0014 1.333 11.2717 2.267 18.9184-4.102.9692 1.174 2.2624 2.34 3.9785 3.424 2.1796 1.374 4.8446 2.497 7.5063 3.163 9.5919 2.398 18.5766 1.798 26.2419-1.563.0473 1.363.0837 2.666.1141 3.791.0508 1.824.1015 3.613.1684 5.286.4542 11.311 1.2242 20.106 3.5042 26.26.125.339.293.855.471 1.402 1.137 3.483 3.04 9.313 7.879 13.88 5.011 4.73 11.073 6.181 16.625 6.181 2.784 0 5.441-.366 7.771-.865 8.305-1.78 17.738-4.492 24.562-14.208 6.452-9.185 9.588-23.019 10.155-44.818.074-.616.141-1.205.207-1.765l.135-1.152 1.52.133.391.026c8.46.386 18.804-1.408 25.156-4.359 5.02-2.329 21.106-10.821 17.318-22.287z" fill="#000"/><path d="m200.964 135.627c-25.153 5.188-26.883-3.328-26.883-3.328 26.557-39.4069 37.66-89.4287 28.08-101.6713-26.138-33.39549-71.383-17.6015-72.138-17.1921l-.243.044c-4.97-1.0319-10.531-1.6459-16.782-1.7482-11.381-.1861-20.0144 2.9839-26.5657 7.9519 0 0-80.7125-33.2508-76.9581 41.8186.7984 15.97 22.8901 120.8391 49.2394 89.1631 9.6309-11.583 18.937-21.376 18.937-21.376 4.6213 3.07 10.1544 4.637 15.9547 4.074l.4508-.382c-.1404 1.438-.0761 2.844.1801 4.51-6.7882 7.584-4.793 8.915-18.3626 11.709-13.7312 2.83-5.665 7.867-.3984 9.185 6.3848 1.596 21.1554 3.857 31.1358-10.114l-.398 1.594c2.659 2.131 4.527 13.857 4.214 24.487s-.522 17.928 1.573 23.629c2.097 5.7 4.185 18.526 22.024 14.704 14.905-3.194 22.63-11.472 23.705-25.28.762-9.816 2.488-8.365 2.596-17.141l1.385-4.155c1.596-13.306.253-17.6 9.436-15.603l2.233.197c6.758.307 15.605-1.088 20.797-3.501 11.179-5.188 17.81-13.851 6.786-11.575z" fill="#336791"/><path d="m91.1567 68.6437c-2.2666-.3155-4.3193-.0237-5.3579.7629-.5836.4423-.7646.9549-.8137 1.3076-.1302.9345.5244 1.9681.927 2.5009 1.1384 1.5089 2.8012 2.5458 4.4471 2.7742.2385.0338.4762.049.7121.049 2.7446 0 5.2405-2.1373 5.4604-3.7146.2748-1.9758-2.5932-3.2935-5.375-3.68zm75.0913.0626c-.216-1.5486-2.972-1.9901-5.587-1.6264-2.612.3636-5.144 1.5427-4.933 3.0947.17 1.2069 2.349 3.2672 4.929 3.2672.218 0 .438-.0144.659-.0457 1.722-.2385 2.986-1.3321 3.587-1.9622.913-.9608 1.442-2.0315 1.345-2.7276z" fill="#fff"/><path d="m209.334 135.037c-.959-2.9-4.046-3.833-9.175-2.774-15.228 3.143-20.682.966-22.473-.353 11.837-18.032 21.575-39.829 26.828-60.1657 2.488-9.6334 3.862-18.58 3.975-25.8723.124-8.0036-1.239-13.8851-4.051-17.478-11.335-14.4839-27.971-22.25319-48.109-22.46633-13.845-.15562-25.542 3.38733-27.809 4.38363-4.775-1.18744-9.981-1.9165-15.649-2.00954-10.393-.1683-19.3765 2.31994-26.8143 7.39214-3.2309-1.2027-11.5804-4.0691-21.7914-5.71412-17.6531-2.8418-31.6811-.68846-41.6918 6.40342-11.9449 8.4628-17.45932 23.5904-16.3911 44.9614.35945 7.19 4.4564 29.3087 10.9215 50.4914 8.5102 27.88 17.7613 43.663 27.4945 46.91 1.1393.38 2.4528.645 3.9016.645 3.5506 0 7.9038-1.6 12.4329-7.045 5.5242-6.627 11.2387-13.093 17.1363-19.39 3.8263 2.053 8.0298 3.2 12.3289 3.315.0084.113.0194.225.0296.337-.7401.882-1.4647 1.777-2.1737 2.685-2.9788 3.782-3.5988 4.569-13.1873 6.543-2.7277.563-9.9717 2.056-10.0783 7.134-.115 5.548 8.5635 7.879 9.5522 8.126 3.4457.862 6.7654 1.288 9.9311 1.288 7.6991 0 14.4746-2.531 19.8893-7.427-.167 19.779.658 39.269 3.033 45.207 1.945 4.862 6.697 16.743 21.706 16.742 2.202 0 4.626-.256 7.293-.828 15.665-3.358 22.467-10.281 25.099-25.545 1.408-8.158 3.824-27.637 4.961-38.086 2.398.749 5.486 1.092 8.825 1.091 6.962 0 14.996-1.48 20.034-3.818 5.66-2.629 15.874-9.079 14.022-14.683zm-37.304-70.6053c-.052 3.0846-.476 5.8849-.926 8.8079-.485 3.1438-.986 6.3941-1.112 10.3397-.124 3.8398.356 7.8319.819 11.6928.937 7.7979 1.899 15.8259-1.823 23.7479-.619-1.096-1.169-2.228-1.65-3.391-.462-1.121-1.467-2.923-2.858-5.416-5.412-9.706-18.086-32.4358-11.598-41.7106 1.932-2.7606 6.837-5.599 19.148-4.0707zm-14.923-52.258c18.044.3984 32.317 7.1485 42.422 20.0619 7.751 9.9048-.784 54.9737-25.491 93.8554-.249-.316-.498-.631-.75-.945l-.313-.391c6.385-10.544 5.137-20.977 4.026-30.2263-.457-3.7959-.889-7.3811-.779-10.749.114-3.5692.586-6.6309 1.042-9.5911.561-3.6478 1.132-7.4225.975-11.8722.117-.4668.165-1.0183.103-1.6729-.402-4.267-5.273-17.0373-15.203-28.5957-5.431-6.3222-13.352-13.3971-24.167-18.169 4.652-.9642 11.013-1.8632 18.135-1.7051zm-100.9671 136.1873c-4.9901 6-8.4358 4.849-9.5691 4.472-7.3837-2.463-15.9514-18.069-23.505-42.816-6.5362-21.4138-10.3557-42.9465-10.6585-48.9845-.954-19.0959 3.6749-32.4042 13.7591-39.5561 16.4115-11.63786 43.3934-4.672 54.2354-1.1392-.1556.1539-.318.2977-.4719.4541-17.7918 17.9677-17.3697 48.666-17.3257 50.5428-.0017.724.0592 1.7491.142 3.159.3062 5.1634.8763 14.7732-.6461 25.6559-1.4142 10.113 1.7034 20.011 8.5516 27.157.7028.732 1.4416 1.429 2.2134 2.087-3.0482 3.265-9.6731 10.485-16.7252 18.968zm19.0122-25.368c-5.5195-5.759-8.0264-13.771-6.8787-21.981 1.607-11.4962 1.0141-21.5085.6952-26.8877-.0448-.7527-.0846-1.4124-.1074-1.9326 2.5991-2.3047 14.6438-8.758 23.2335-6.7899 3.9193.8974 6.3078 3.5667 7.3007 8.1575 5.1386 23.7689.6796 33.6757-2.9027 41.6367-.7383 1.64-1.4361 3.19-2.0315 4.794l-.4618 1.24c-1.1689 3.134-2.2565 6.049-2.9306 8.816-5.868-.017-11.5762-2.524-15.9167-7.054zm.9008 32.055c-1.7136-.428-3.2546-1.171-4.1587-1.788.7552-.355 2.0992-.839 4.4301-1.319 11.2802-2.322 13.0225-3.961 16.8268-8.791.872-1.108 1.8607-2.363 3.23-3.892l.0017-.002c2.0391-2.284 2.972-1.896 4.6632-1.194 1.371.566 2.707 2.285 3.248 4.176.256.893.544 2.588-.397 3.908-7.9473 11.127-19.5276 10.984-27.8441 8.902zm59.0341 54.935c-13.799 2.957-18.686-4.084-21.905-12.133-2.078-5.197-3.1-28.63-2.375-54.508.009-.344-.04-.677-.135-.99-.085-.618-.213-1.229-.385-1.828-1.078-3.766-3.704-6.915-6.855-8.221-1.251-.519-3.5485-1.47-6.3092-.764.5887-2.426 1.6096-5.165 2.7167-8.131l.4645-1.248c.522-1.406 1.179-2.864 1.872-4.406 3.75-8.33 8.884-19.7382 3.312-45.5115-2.088-9.6537-9.0587-14.3681-19.6258-13.2728-6.3349.6555-12.131 3.2114-15.0219 4.6771-.6216.3147-1.19.6191-1.7211.9152.8068-9.7265 3.855-27.9039 15.2578-39.4048 7.1798-7.2398 16.741-10.8157 28.391-10.6229 22.954.3755 37.674 12.1555 45.982 21.9724 7.158 8.4586 11.034 16.9798 12.581 21.5758-11.633-1.1833-19.546 1.113-23.556 6.8474-8.726 12.4735 4.773 36.6831 11.261 48.3181 1.19 2.132 2.217 3.975 2.54 4.759 2.113 5.12 4.848 8.539 6.845 11.034.612.764 1.206 1.506 1.658 2.154-3.524 1.016-9.853 3.363-9.276 15.094-.465 5.887-3.773 33.447-5.454 43.185-2.218 12.864-6.952 17.655-20.262 20.51zm57.601-65.916c-3.603 1.672-9.633 2.926-15.36 3.196-6.327.296-9.547-.709-10.305-1.327-.355-7.311 2.366-8.075 5.245-8.883.453-.127.894-.252 1.321-.4.264.215.554.429.872.639 5.085 3.356 14.155 3.718 26.959 1.075l.14-.028c-1.727 1.615-4.682 3.782-8.872 5.728z" fill="#fff"/><path d="m282.07 108.266h-15.703v-5.118h15.703c3.177 0 5.742-.507 7.696-1.523 1.979-1.016 3.424-2.4219 4.336-4.2188.911-1.7968 1.367-3.8151 1.367-6.0546 0-2.1355-.456-4.1146-1.367-5.9375-.912-1.849-2.357-3.3334-4.336-4.4532-1.954-1.1198-4.519-1.6797-7.696-1.6797h-13.984v51.7188h-6.172v-56.875h20.156c4.245 0 7.813.7292 10.703 2.1875 2.917 1.4583 5.118 3.4766 6.602 6.0547 1.51 2.5781 2.266 5.5469 2.266 8.9062 0 3.5677-.756 6.6276-2.266 9.1796-1.484 2.526-3.685 4.466-6.602 5.82-2.89 1.329-6.458 1.993-10.703 1.993zm19.382 2.148v-1.094c0-4.088.781-7.734 2.343-10.9372 1.563-3.2292 3.763-5.7682 6.602-7.6172 2.864-1.875 6.224-2.8125 10.078-2.8125 3.906 0 7.279.9375 10.117 2.8125 2.865 1.849 5.078 4.388 6.641 7.6172 1.562 3.2032 2.344 6.8492 2.344 10.9372v1.094c0 4.089-.782 7.747-2.344 10.977-1.563 3.229-3.763 5.768-6.602 7.617-2.838 1.849-6.198 2.773-10.078 2.773s-7.252-.924-10.117-2.773-5.078-4.388-6.641-7.617c-1.562-3.23-2.343-6.888-2.343-10.977zm5.976-1.094v1.094c0 2.943.495 5.664 1.484 8.164.99 2.474 2.448 4.466 4.375 5.977 1.954 1.51 4.375 2.265 7.266 2.265 2.865 0 5.261-.755 7.188-2.265 1.927-1.511 3.385-3.503 4.375-5.977.989-2.5 1.484-5.221 1.484-8.164v-1.094c0-2.89-.508-5.573-1.523-8.047-.99-2.4996-2.448-4.5178-4.375-6.0542-1.928-1.5365-4.336-2.3047-7.227-2.3047-2.865 0-5.26.7682-7.188 2.3047-1.927 1.5364-3.385 3.5546-4.375 6.0542-.989 2.474-1.484 5.157-1.484 8.047zm60.084 10.703c0-1.119-.26-2.174-.781-3.164-.521-1.015-1.536-1.94-3.047-2.773-1.484-.859-3.711-1.589-6.679-2.188-3.151-.651-5.847-1.471-8.086-2.46-2.24-.99-3.959-2.253-5.157-3.79-1.171-1.536-1.757-3.463-1.757-5.7808 0-2.1615.625-4.1406 1.875-5.9375s3.021-3.2422 5.312-4.3359c2.292-1.0938 4.987-1.6407 8.086-1.6407 3.333 0 6.172.5729 8.516 1.7188 2.37 1.1458 4.179 2.6953 5.429 4.6484 1.276 1.9531 1.914 4.1406 1.914 6.5627h-5.976c0-1.9794-.846-3.8023-2.539-5.4689-1.693-1.6667-4.141-2.5-7.344-2.5-2.213 0-4.01.3385-5.391 1.0156-1.354.6771-2.343 1.5364-2.968 2.5781-.625 1.0156-.938 2.0833-.938 3.2031 0 1.1461.261 2.1481.781 3.0081.547.859 1.576 1.64 3.086 2.343 1.511.678 3.711 1.342 6.602 1.993 3.437.781 6.263 1.718 8.477 2.812 2.213 1.094 3.854 2.435 4.921 4.024 1.068 1.562 1.602 3.463 1.602 5.703 0 2.396-.664 4.518-1.992 6.367-1.302 1.823-3.151 3.255-5.547 4.297-2.396 1.015-5.195 1.523-8.399 1.523-3.645 0-6.731-.625-9.257-1.875-2.526-1.276-4.44-2.916-5.743-4.922-1.302-2.031-1.953-4.179-1.953-6.445h5.977c.13 2.083.755 3.737 1.875 4.961 1.146 1.198 2.539 2.057 4.18 2.578 1.64.495 3.281.742 4.921.742 2.188 0 4.011-.299 5.469-.898 1.485-.625 2.604-1.458 3.36-2.5.781-1.042 1.171-2.175 1.171-3.399zm26.413-31.2886v4.6875h-22.031v-4.6875zm-14.258-10.5469h5.938v42.4215c0 1.693.234 2.982.703 3.868.495.859 1.12 1.432 1.875 1.718.781.261 1.614.391 2.5.391.651 0 1.302-.052 1.953-.156s1.198-.196 1.641-.274l.117 4.922c-.573.182-1.328.339-2.266.469-.911.156-1.914.234-3.008.234-1.771 0-3.385-.338-4.843-1.015-1.433-.704-2.566-1.862-3.399-3.477-.807-1.641-1.211-3.867-1.211-6.68zm44.538 10.5469h5.468v41.4456c0 3.698-.729 6.862-2.187 9.492s-3.503 4.635-6.133 6.016c-2.604 1.38-5.638 2.07-9.101 2.07-1.615 0-3.373-.248-5.274-.742-1.901-.495-3.724-1.289-5.469-2.383-1.744-1.068-3.229-2.448-4.453-4.141l3.203-3.594c1.745 2.136 3.581 3.646 5.508 4.532 1.953.911 3.972 1.367 6.055 1.367 3.724 0 6.64-1.068 8.75-3.203 2.109-2.136 3.164-5.183 3.164-9.141v-32.4218zm-29.375 21.5626v-.82c0-4.323.664-8.099 1.992-11.3286 1.328-3.2291 3.216-5.7291 5.664-7.5 2.474-1.7968 5.417-2.6953 8.828-2.6953 2.578 0 4.831.4427 6.758 1.3281 1.953.8594 3.62 2.1094 5 3.75 1.38 1.6146 2.487 3.5678 3.32 5.8594.834 2.2654 1.419 4.8174 1.758 7.6564v7.031c-.391 3.62-1.263 6.81-2.617 9.57-1.328 2.735-3.177 4.857-5.547 6.368-2.37 1.51-5.287 2.265-8.75 2.265-3.359 0-6.276-.924-8.75-2.773-2.448-1.849-4.336-4.388-5.664-7.617-1.328-3.23-1.992-6.927-1.992-11.094zm5.937-.82v.82c0 3.047.417 5.807 1.25 8.281.834 2.474 2.11 4.44 3.828 5.899 1.745 1.458 3.985 2.187 6.719 2.187 2.526 0 4.635-.508 6.328-1.523 1.693-1.042 3.034-2.396 4.024-4.063 1.015-1.693 1.77-3.542 2.265-5.547v-10.781c-.286-1.38-.729-2.76-1.328-4.141-.573-1.4059-1.354-2.6689-2.344-3.7887-.963-1.1458-2.174-2.0573-3.632-2.7344-1.459-.7031-3.204-1.0547-5.235-1.0547-2.76 0-5.013.7422-6.758 2.2266-1.744 1.4583-3.033 3.4375-3.867 5.9372-.833 2.474-1.25 5.235-1.25 8.282zm40.085-13.9067v35.4297h-5.938v-42.2656h5.781zm14.101-7.1094-.117 5.5079c-.547-.1042-1.081-.1693-1.602-.1954-.494-.052-1.054-.0781-1.679-.0781-2.474 0-4.545.5469-6.211 1.6406-1.667 1.0938-2.956 2.5782-3.867 4.4532-.886 1.8749-1.407 4.0099-1.563 6.4059l-1.875.899c0-3.542.482-6.758 1.445-9.6487.99-2.8906 2.5-5.1953 4.532-6.9141 2.031-1.7187 4.622-2.5781 7.773-2.5781.573 0 1.172.0521 1.797.1563.625.1041 1.081.2213 1.367.3515zm16.764 43.3201c-3.802 0-7.148-.872-10.039-2.617-2.89-1.771-5.143-4.206-6.758-7.305-1.614-3.125-2.422-6.679-2.422-10.664v-1.64c0-4.479.86-8.334 2.579-11.5628 1.718-3.2292 3.971-5.7031 6.757-7.4219 2.813-1.7448 5.808-2.6172 8.985-2.6172 3.802 0 6.966.8724 9.492 2.6172 2.526 1.7188 4.414 4.0886 5.664 7.1094 1.25 2.9943 1.875 6.4323 1.875 10.3123v3.047h-31.758v-4.961h25.821v-.508c-.079-2.135-.508-4.166-1.29-6.0934-.781-1.9271-1.979-3.5026-3.593-4.7266-1.589-1.224-3.659-1.8359-6.211-1.8359-2.422 0-4.571.677-6.446 2.0312-1.849 1.3542-3.294 3.2813-4.335 5.7817-1.042 2.474-1.563 5.416-1.563 8.828v1.64c0 2.891.547 5.521 1.641 7.891 1.119 2.344 2.695 4.232 4.726 5.664 2.031 1.406 4.414 2.109 7.149 2.109 2.526 0 4.713-.494 6.562-1.484s3.49-2.422 4.922-4.297l3.672 2.891c-1.38 2.057-3.307 3.88-5.781 5.469-2.448 1.562-5.664 2.343-9.649 2.343zm50.866-14.961c0-1.927-.43-3.567-1.289-4.922-.834-1.38-2.305-2.617-4.414-3.71-2.11-1.094-5.052-2.175-8.828-3.243-3.776-1.093-7.058-2.343-9.844-3.75-2.761-1.432-4.896-3.1768-6.406-5.2341-1.511-2.0573-2.266-4.5703-2.266-7.539 0-2.9427.807-5.5469 2.422-7.8125 1.614-2.2656 3.867-4.0365 6.758-5.3125 2.89-1.3021 6.237-1.9531 10.039-1.9531 4.114 0 7.643.7942 10.586 2.3828 2.968 1.5625 5.234 3.6458 6.796 6.25 1.589 2.5781 2.383 5.3906 2.383 8.4375h-6.133c0-2.2917-.52-4.336-1.562-6.1329-1.042-1.7968-2.578-3.2031-4.609-4.2187-2.006-1.0417-4.493-1.5625-7.461-1.5625-2.917 0-5.339.4427-7.266 1.3281-1.927.8594-3.372 2.0313-4.336 3.5157-.963 1.4843-1.445 3.151-1.445 5 0 1.6927.469 3.2031 1.406 4.5312.938 1.3281 2.448 2.5391 4.531 3.6328 2.11 1.0677 4.896 2.0703 8.36 3.0078 4.166 1.1724 7.643 2.5264 10.429 4.0624 2.787 1.511 4.87 3.333 6.25 5.469 1.407 2.109 2.11 4.674 2.11 7.695 0 3.073-.834 5.742-2.5 8.008-1.667 2.266-3.985 4.01-6.953 5.234-2.943 1.198-6.355 1.797-10.235 1.797-2.578 0-5.13-.338-7.656-1.015-2.526-.704-4.831-1.758-6.914-3.164-2.057-1.433-3.711-3.217-4.961-5.352-1.224-2.161-1.836-4.701-1.836-7.617h6.133c0 2.161.43 4.01 1.289 5.547.859 1.51 2.018 2.747 3.476 3.711 1.459.963 3.086 1.666 4.883 2.109 1.823.443 3.685.664 5.586.664 2.787 0 5.183-.404 7.188-1.211 2.031-.807 3.58-1.953 4.648-3.437 1.094-1.485 1.641-3.217 1.641-5.196zm38.483 8.672 13.75 11.446-4.18 3.828-13.594-11.25zm13.984-25.351v4.843c0 5.495-.924 10.248-2.773 14.258-1.823 4.011-4.415 7.11-7.774 9.297-3.359 2.162-7.331 3.242-11.914 3.242-4.427 0-8.346-1.08-11.758-3.242-3.385-2.187-6.028-5.286-7.929-9.297-1.901-4.01-2.852-8.763-2.852-14.258v-4.843c0-5.4952.937-10.2478 2.812-14.2582 1.902-4.0104 4.545-7.0963 7.93-9.2578 3.386-2.1875 7.292-3.2812 11.719-3.2812 4.583 0 8.555 1.0937 11.914 3.2812 3.385 2.1615 6.003 5.2474 7.852 9.2578s2.773 8.763 2.773 14.2582zm-6.094 4.843v-4.922c0-4.4787-.651-8.3068-1.953-11.4839-1.276-3.2031-3.138-5.651-5.586-7.3437-2.448-1.7188-5.416-2.5782-8.906-2.5782-3.333 0-6.224.8594-8.672 2.5782-2.448 1.6927-4.336 4.1406-5.664 7.3437-1.328 3.1771-1.992 7.0052-1.992 11.4839v4.922c0 4.532.664 8.399 1.992 11.602 1.354 3.203 3.255 5.651 5.703 7.344 2.474 1.692 5.378 2.539 8.711 2.539 3.49 0 6.445-.847 8.867-2.539 2.448-1.693 4.31-4.141 5.586-7.344s1.914-7.07 1.914-11.602zm45.358 20.899v5.117h-28.945v-5.117zm-27.5-51.758v56.875h-6.172v-56.875z" fill="#000"/></svg>