<svg fill="none" height="184" viewBox="0 0 491 184" width="491" xmlns="http://www.w3.org/2000/svg"><g fill="#c00"><path d="m210.176 153.926s21.649-1.977 21.649-31.76c0-29.784-26.226-32.5515-26.226-32.5515h-47.256v93.9635h23.752v-22.667l20.535 22.667h35.132zm-9.154-19.241h-18.927v-21.481h19.051s5.319 2.109 5.319 10.675-5.443 10.806-5.443 10.806zm89.439-44.4116h-24.123c-17.195 0-23.009 16.6046-23.009 24.5126v68.792h24.123v-16.473h22.638v16.473h23.38v-68.792c0-20.0318-17.071-24.5126-23.009-24.5126zm-.371 50.2106h-22.762v-22.799s0-5.14 7.546-5.14h8.288c6.68 0 6.804 5.14 6.804 5.14v22.799zm34.39-50.2106h25.112v93.3046h-25.112zm60.368 69.1876v-69.1876h-24.988v69.1876 24.117h24.988 33.772v-24.117zm42.06.264v23.853h40.452c8.288 0 22.515-6.458 23.009-24.512v-9.225c0-15.419-11.875-24.512-23.009-24.512h-20.164v-11.071h39.957v-23.9846h-38.349c-9.896 0-23.133 8.6979-23.133 24.9076v8.303c0 16.209 13.113 24.512 23.133 24.512 27.834.131-6.68 0 19.051 0v11.597z"/><path d="m8.6594 183.446h97.7276s-18.6797-90.8004 43.173-127.5687c13.484-6.9847 56.41-33.0783 126.675 22.2718 2.227-1.9768 4.33-3.5582 4.33-3.5582s-64.327-68.39696-135.953-60.7534c-35.998 3.4265-80.285 38.3498-106.2632 84.4749-25.9782 46.1246-29.6894 85.1336-29.6894 85.1336zm203.6196-162.2285.495-8.8296c-1.114-.6589-4.206-2.2404-12-4.61253l-.494 8.69793c4.082 1.4496 8.04 3.031 11.999 4.7442zm-11.752 27.9387-.495 8.3025c4.082.1318 8.165.6589 12.247 1.5814l.495-8.1707c-4.206-.9225-8.288-1.4496-12.247-1.7132zm-45.771-41.11725h1.237l-2.474-8.03895c-3.835 0-7.794.263572-11.876.790716l2.35 7.775374c3.588-.39536 7.175-.52714 10.763-.52714zm5.938 48.49725 2.845 9.0932c3.587-1.845 7.175-3.4264 10.762-4.6125l-2.721-8.6979c-4.206 1.3179-7.794 2.7676-10.886 4.2172zm-56.163-34.6597-5.5664-9.0933c-3.0927 1.7133-6.309 3.5583-9.6491 5.6668l5.6905 9.2251c3.2163-2.1086 6.309-4.0854 9.525-5.7986zm25.36 59.3037 5.938 9.4886c2.103-3.2947 4.577-6.3258 7.298-9.3568l-5.566-8.9615c-2.845 2.7675-5.443 5.7986-7.67 8.8297zm-17.937 42.4348 10.02 8.435c.495-5.14 1.361-10.28 2.598-15.419l-8.907-7.512c-1.608 4.876-2.722 9.752-3.711 14.496zm-54.1834-62.5981-8.7831-8.1707c-3.2164 3.2946-6.309 6.5893-9.1543 9.8839l9.5254 8.6979c2.5978-3.5582 5.443-7.1164 8.412-10.4111zm-37.3592 58.9081-14.22612-5.535c-2.3504 5.667-4.94822 12.256-6.18528 15.815l14.2262 5.535c1.6081-4.481 4.2059-10.939 6.1852-15.815zm89.6866 37.164c.247 6.985.866 12.651 1.485 16.605l14.844 5.667c-1.113-5.14-2.226-10.938-2.969-17.132z"/></g></svg>