<svg fill="none" height="197" viewBox="0 0 595 197" width="595" xmlns="http://www.w3.org/2000/svg" xmlns:xlink="http://www.w3.org/1999/xlink"><linearGradient id="a" gradientUnits="userSpaceOnUse" x1="173.082" x2="131.348" y1="214.914" y2="141.435"><stop offset="0" stop-color="#fb7655"/><stop offset=".41" stop-color="#e42b1e"/><stop offset=".99" stop-color="#900"/><stop offset="1" stop-color="#900"/></linearGradient><linearGradient id="b"><stop offset="0" stop-color="#871101"/><stop offset=".99" stop-color="#911209"/><stop offset="1" stop-color="#911209"/></linearGradient><linearGradient id="c" gradientUnits="userSpaceOnUse" x1="193.786" x2="140.134" xlink:href="#b" y1="153.108" y2="117.203"/><linearGradient id="d" gradientUnits="userSpaceOnUse" x1="150.932" x2="97.2822" xlink:href="#b" y1="217.144" y2="181.241"/><linearGradient id="e" gradientUnits="userSpaceOnUse" x1="38.4779" x2="46.826" y1="127.017" y2="181.122"><stop offset="0" stop-color="#fff"/><stop offset=".23" stop-color="#e57252"/><stop offset=".46" stop-color="#de3b20"/><stop offset=".99" stop-color="#a60003"/><stop offset="1" stop-color="#a60003"/></linearGradient><linearGradient id="f" gradientUnits="userSpaceOnUse" x1="146.265" x2="155.472" y1="25.4459" y2="65.013"><stop offset="0" stop-color="#fff"/><stop offset=".18" stop-color="#e46342"/><stop offset=".4" stop-color="#c82410"/><stop offset=".99" stop-color="#a80d00"/><stop offset="1" stop-color="#a80d00"/></linearGradient><linearGradient id="g" gradientUnits="userSpaceOnUse" x1="118.295" x2="157.805" y1="11.5061" y2="-8.19393"><stop offset="0" stop-color="#fff"/><stop offset=".54" stop-color="#c81f11"/><stop offset=".99" stop-color="#bf0905"/><stop offset="1" stop-color="#bf0905"/></linearGradient><linearGradient id="h" gradientUnits="userSpaceOnUse" x1="3.88104" x2="7.1472" y1="113.221" y2="145.831"><stop offset="0" stop-color="#fff"/><stop offset=".31" stop-color="#de4024"/><stop offset=".99" stop-color="#bf190b"/><stop offset="1" stop-color="#bf190b"/></linearGradient><linearGradient id="i" gradientUnits="userSpaceOnUse" x1="95.5871" x2="98.6636" y1="76.4906" y2="131.713"><stop offset="0" stop-color="#fff"/><stop offset=".23" stop-color="#e4714e"/><stop offset=".56" stop-color="#be1a0d"/><stop offset=".99" stop-color="#a80d00"/><stop offset="1" stop-color="#a80d00"/></linearGradient><linearGradient id="j" gradientUnits="userSpaceOnUse" x1="-18.4509" x2="134.68" y1="154.647" y2="-2.37601"><stop offset="0" stop-color="#bd0012"/><stop offset=".07" stop-color="#fff"/><stop offset=".17" stop-color="#fff"/><stop offset=".27" stop-color="#c82f1c"/><stop offset=".33" stop-color="#820c01"/><stop offset=".46" stop-color="#a31601"/><stop offset=".72" stop-color="#b31301"/><stop offset=".99" stop-color="#e82609"/><stop offset="1" stop-color="#e82609"/></linearGradient><linearGradient id="k" gradientUnits="userSpaceOnUse" x1="98.5118" x2="52.5043" y1="170.529" y2="159.205"><stop offset="0" stop-color="#8c0c01"/><stop offset=".54" stop-color="#990c00"/><stop offset=".99" stop-color="#a80d0e"/><stop offset="1" stop-color="#a80d0e"/></linearGradient><linearGradient id="l" gradientUnits="userSpaceOnUse" x1="177.505" x2="136.545" y1="115.174" y2="78.5648"><stop offset="0" stop-color="#7e110b"/><stop offset=".99" stop-color="#9e0c00"/><stop offset="1" stop-color="#9e0c00"/></linearGradient><linearGradient id="m" gradientUnits="userSpaceOnUse" x1="192.516" x2="172.104" y1="47.7981" y2="26.0358"><stop offset="0" stop-color="#79130d"/><stop offset=".99" stop-color="#9e120b"/><stop offset="1" stop-color="#9e120b"/></linearGradient><radialGradient id="n" cx="0" cy="0" gradientTransform="matrix(50.0701 0 0 50.2094 143.012 79.1541)" gradientUnits="userSpaceOnUse" r="1"><stop offset="0" stop-color="#a80d00"/><stop offset=".99" stop-color="#7e0e08"/><stop offset="1" stop-color="#7e0e08"/></radialGradient><radialGradient id="o" cx="0" cy="0" gradientTransform="matrix(66.5615 0 0 66.7468 73.6735 145.321)" gradientUnits="userSpaceOnUse" r="1"><stop offset="0" stop-color="#a30c00"/><stop offset=".99" stop-color="#800e08"/><stop offset="1" stop-color="#800e08"/></radialGradient><linearGradient id="p" gradientUnits="userSpaceOnUse" x1="26.5189" x2="9.84792" y1="196.753" y2="140.351"><stop offset="0" stop-color="#8b2114"/><stop offset=".43" stop-color="#9e100a"/><stop offset=".99" stop-color="#b3100c"/><stop offset="1" stop-color="#b3100c"/></linearGradient><linearGradient id="q" gradientUnits="userSpaceOnUse" x1="153.758" x2="190.977" y1="9.77091" y2="26.1539"><stop offset="0" stop-color="#b31000"/><stop offset=".44" stop-color="#910f08"/><stop offset=".99" stop-color="#791c12"/><stop offset="1" stop-color="#791c12"/></linearGradient><path clip-rule="evenodd" d="m152.626 130.025-112.4743 66.972 145.6333-9.91 11.216-147.2559z" fill="url(#a)" fill-rule="evenodd"/><path clip-rule="evenodd" d="m186.025 186.99-12.517-86.635-34.095 45.147z" fill="url(#c)" fill-rule="evenodd"/><path clip-rule="evenodd" d="m186.194 186.987-91.7027-7.218-53.8507 17.04z" fill="url(#d)" fill-rule="evenodd"/><path clip-rule="evenodd" d="m40.7684 196.831 22.9082-75.258-50.4103 10.809z" fill="url(#e)" fill-rule="evenodd"/><path clip-rule="evenodd" d="m192.218 64.1207-57.023-46.7021-15.878 51.4785z" fill="url(#f)" fill-rule="evenodd"/><path clip-rule="evenodd" d="m165.548.766313-33.537 18.585087-21.159-18.834371z" fill="url(#g)" fill-rule="evenodd"/><path clip-rule="evenodd" d="m0 157.625 14.0493-25.694-11.3647-30.61z" fill="url(#h)" fill-rule="evenodd"/><path clip-rule="evenodd" d="m1.93182 100.354 11.43438 32.524 49.6849-11.178 56.7239-52.8636 16.008-50.989-25.206-17.8474-42.8537 16.0826c-13.5018 12.5928-39.7013 37.5093-40.6459 37.978-.9346.4786-17.30059 31.4969-25.14558 46.2934z" fill="#fff" fill-rule="evenodd"/><path d="m63.3901 121.386 56.3849-52.5488.026-.0805 19.602 76.9943z" fill="url(#i)"/><g clip-rule="evenodd" fill-rule="evenodd"><path d="m42.0773 41.9258c29.2618-29.0942 66.9857-46.28347 81.4627-31.6367 14.468 14.6468-.875 50.2421-30.137 79.3257-29.2626 29.0842-66.5185 47.2212-80.9855 32.5742-14.47685-14.637.3978-51.1791 29.6598-80.2632z" fill="url(#j)"/><path d="m40.7689 196.798 22.7296-75.498 75.4865 24.319c-27.293 25.664-57.6491 47.36-98.2161 51.179z" fill="url(#k)"/><path d="m119.87 68.6861 19.379 76.9729c22.799-24.039 43.261-49.883 53.283-81.8486z" fill="url(#l)"/><path d="m192.334 64.2028c7.755-23.4708 9.545-57.14157-27.026-63.393169l-30.007 16.621069z" fill="url(#m)"/><path d="m0 157.287c1.07381 38.737 28.9438 39.314 40.8156 39.654l-27.4225-64.222z" fill="#9e1209"/><path d="m119.982 68.8068c17.519 10.798 52.828 32.4842 53.544 32.8832 1.112.628 15.222-23.8599 18.424-37.699z" fill="url(#n)"/><path d="m63.4698 121.3 30.3854 58.787c17.9668-9.771 32.0358-21.676 44.9228-34.428z" fill="url(#o)"/><path d="m13.2751 132.796-4.30531 51.409c8.12341 11.127 19.29921 12.094 31.02191 11.227-8.4813-21.168-25.424-63.493-26.7166-62.636z" fill="url(#p)"/><path d="m135.124 17.56 60.364 8.4949c-3.222-13.6896-13.115-22.52353-29.979-25.285369z" fill="url(#q)"/></g><path d="m261.4 59.32c7.36 0 13.4.92 18.12 2.76s8.24 4.6 10.56 8.28c2.32 3.6 3.48 8.16 3.48 13.68 0 4.4-.84 8.12-2.52 11.16-1.6 2.96-3.68 5.4-6.24 7.32-2.56 1.84-5.24 3.32-8.04 4.44l24 38.04h-14.88l-20.64-34.68h-14.88v34.68h-12.96v-85.68zm-.84 11.04h-10.2v29.16h10.8c4.4 0 8-.56 10.8-1.68 2.88-1.12 4.96-2.8 6.24-5.04 1.36-2.24 2.04-5 2.04-8.28 0-3.44-.72-6.16-2.16-8.16-1.36-2.08-3.52-3.6-6.48-4.56-2.88-.96-6.56-1.44-11.04-1.44zm107.018 9.96v64.68h-10.2l-1.8-8.52h-.6c-1.36 2.24-3.12 4.08-5.28 5.52s-4.52 2.48-7.08 3.12c-2.56.72-5.2 1.08-7.92 1.08-5.04 0-9.32-.8-12.84-2.4-3.44-1.68-6.08-4.24-7.92-7.68-1.76-3.52-2.64-8-2.64-13.44v-42.36h12.84v40.44c0 5.04 1.04 8.8 3.12 11.28 2.16 2.48 5.48 3.72 9.959 3.72 4.481 0 8.001-.88 10.561-2.64s4.36-4.32 5.4-7.68c1.12-3.44 1.68-7.56 1.68-12.36v-32.76zm32.625-4.56c0 2.64-.08 5.16-.24 7.56-.08 2.32-.2 4.16-.36 5.52h.6c1.84-2.72 4.32-5 7.44-6.84s7.16-2.76 12.12-2.76c7.76 0 14 2.8 18.72 8.4 4.8 5.6 7.2 13.92 7.2 24.96 0 7.44-1.08 13.64-3.24 18.6s-5.2 8.72-9.12 11.28c-3.92 2.48-8.48 3.72-13.68 3.72-5.04 0-9.08-.88-12.12-2.64-3.04-1.84-5.48-4-7.32-6.48h-.96l-2.4 7.92h-9.36v-91.2h12.72zm16.56 13.8c-4.16 0-7.44.8-9.84 2.4s-4.12 4.04-5.16 7.32-1.56 7.44-1.56 12.48v.96c0 7.44 1.2 13.16 3.6 17.16 2.4 3.92 6.8 5.88 13.2 5.88 5.12 0 9-2 11.64-6s3.96-9.76 3.96-17.28c0-7.6-1.32-13.32-3.96-17.16s-6.6-5.76-11.88-5.76zm32.951-9.24h13.68l13.44 36.72c.72 1.84 1.36 3.64 1.92 5.4s1.04 3.52 1.44 5.28c.48 1.68.84 3.36 1.08 5.04h.48c.4-2.08 1.04-4.52 1.92-7.32.88-2.88 1.8-5.72 2.76-8.52l12.72-36.6h13.68l-27.72 73.44c-1.52 4.16-3.4 7.72-5.64 10.68-2.24 3.04-4.92 5.36-8.04 6.96-3.04 1.6-6.64 2.4-10.8 2.4-2 0-3.72-.12-5.16-.36-1.44-.16-2.68-.36-3.72-.6v-10.08c.88.16 1.92.32 3.12.48 1.28.16 2.6.24 3.96.24 2.48 0 4.6-.48 6.36-1.44 1.84-.96 3.36-2.32 4.56-4.08 1.28-1.76 2.36-3.76 3.24-6l2.64-6.96z" fill="#000"/></svg>